<?xml version="1.0" encoding="utf-8"?>
<!-- Generator: Adobe Illustrator 23.0.1, SVG Export Plug-In . SVG Version: 6.00 Build 0)  -->
<svg version="1.1" id="Capa_1" xmlns="http://www.w3.org/2000/svg" xmlns:xlink="http://www.w3.org/1999/xlink" x="0px" y="0px"
	 viewBox="0 0 299.1 299.1" style="enable-background:new 0 0 299.1 299.1;" xml:space="preserve">
<style type="text/css">
	.st0{fill:#515151;}
	.st1{fill:#FFFF00;}
</style>
<g>
	<g id="XMLID_1_">
		<g>
			<path class="st0" d="M295.7,225.2c0,4.2-0.4,8.2-1.1,12.2c-5.2,31-29.6,55.4-60.6,60.6c-4,0.7-8,1.1-12.2,1.1
				c-27.9,0-52.2-15.5-64.8-38.4c-5.8-10.6-9.1-22.6-9.1-35.5c0-5.8,0.7-11.5,2-16.9c1.2-5.2,2.9-10.2,5.2-14.9
				c4.4-9.1,10.6-17.2,18.1-23.8c4.2-3.7,8.8-6.9,13.8-9.6c10.4-5.5,22.2-8.7,34.8-8.7c12.9,0,25,3.3,35.5,9.1
				C280.2,173,295.7,197.3,295.7,225.2z M279.4,234.3c0.5-2.9,0.8-5.9,0.8-9c0-32.2-26.2-58.3-58.3-58.3c-11.5,0-22.1,3.3-31.1,9
				c-5,3.1-9.5,7-13.3,11.5c-3.4,3.9-6.2,8.3-8.4,13.1c-2.2,4.8-3.8,9.9-4.7,15.2c-0.5,3.1-0.8,6.2-0.8,9.4
				c0,32.2,26.2,58.3,58.3,58.3c3,0,6-0.3,9-0.7C255.8,278.9,275.5,259.2,279.4,234.3z"/>
			<path class="st0" d="M252.1,238.2c0,8-2.6,15.1-7.7,21.4c-5.1,6.3-12.8,9.4-23,9.4c-8.2,0-15-2.2-20.3-6.6
				c-5.3-4.4-8.2-10.7-8.8-18.8h17c0.7,3.7,2,6.6,3.9,8.6c1.9,2,4.6,3,8.3,3c4.2,0,7.4-1.4,9.6-4.4c2.2-3,3.3-6.7,3.3-11.2
				c0-4.4-1-8.2-3.1-11.2c-2.1-3.1-5.3-4.6-9.7-4.6c-2.1,0-3.9,0.3-5.4,0.8c-2.6,0.9-4.6,2.7-6,5.3l-15.3-0.7l0.2-1.7l2.8-22.1l3-24
				h47.6v14.4h-35.4l-3.1,18.9c2.6-1.7,4.6-2.8,6.1-3.4c2.5-0.9,5.5-1.4,9-1.4c7.1,0,13.3,2.5,19,7.3
				C249.4,222,252.1,229,252.1,238.2z"/>
			<path class="st1" d="M241.9,86.6c0.7,2.1,1.5,7.2-4.8,12.1l-45,45.3c-8,2.6-15.5,6.4-22.2,11.3l-2.1-9l52-52.4l-65.5-8.3
				l-31.4-62.4L91.5,85.6L26,93.9l52,52.4l-14.3,61.3l59.2-30.7l20.8,10.7c-2.2,4.8-3.8,9.8-5,15l-15.8-8.2l-60.6,31.4
				c-2.6,1.7-5.1,2.6-7.5,2.6c-3,0-5.8-1.4-7.5-3.8c-2.1-2.9-2.4-6.5-1.1-10.9l14.6-62.5L8.6,98.6c-6.3-4.9-5.5-10-4.8-12.1
				c0.7-2,3.1-6.7,11.1-6.9l66.4-8.4l31.6-62.9c2.7-7.5,7.9-8.3,10-8.3s7.3,0.8,10,8.3l31.5,63l66.4,8.4
				C238.8,79.9,241.2,84.6,241.9,86.6z"/>
		</g>
		<g>
		</g>
	</g>
</g>
</svg>
