<?xml version="1.0" encoding="utf-8"?>
<!-- Generator: Adobe Illustrator 23.0.1, SVG Export Plug-In . SVG Version: 6.00 Build 0)  -->
<svg version="1.1" id="Capa_1" xmlns="http://www.w3.org/2000/svg" xmlns:xlink="http://www.w3.org/1999/xlink" x="0px" y="0px"
	 viewBox="0 0 299.1 299.1" style="enable-background:new 0 0 299.1 299.1;" xml:space="preserve">
<style type="text/css">
	.st0{fill:#FFFF00;}
</style>
<g>
	<g>
		<path class="st0" d="M8.6,98.6l52.2,52.6l-14.6,62.5c-1.3,4.4-1,8,1.1,10.9c1.7,2.4,4.5,3.8,7.5,3.8c2.4,0,4.9-0.9,7.5-2.6
			l60.6-31.4l15.8,8.2c1.2-5.2,2.8-10.2,5-15l-20.8-10.7l-59.2,30.7L78,146.3l-52-52.4l65.5-8.3l31.4-62.4l31.4,62.4l65.5,8.3
			l-52,52.4l2.1,9c6.7-4.9,14.2-8.7,22.2-11.3l45-45.3c6.3-4.9,5.5-10,4.8-12.1c-0.7-2-3.1-6.7-11.1-6.9l-66.4-8.4L132.9,8.3
			c-2.7-7.5-7.9-8.3-10-8.3c-2.1,0-7.3,0.8-10,8.3L81.3,71.2l-66.4,8.4c-8,0.2-10.4,4.9-11.1,6.9C3.1,88.6,2.3,93.7,8.6,98.6z"/>
		<path class="st0" d="M295.7,225.2c0-27.9-15.5-52.2-38.4-64.8c-10.5-5.8-22.6-9.1-35.5-9.1c-12.6,0-24.4,3.2-34.8,8.7
			c-5,2.7-9.6,5.9-13.8,9.6c-7.5,6.6-13.7,14.7-18.1,23.8c-2.3,4.7-4,9.7-5.2,14.9c-1.3,5.4-2,11.1-2,16.9c0,12.9,3.3,24.9,9.1,35.5
			c12.6,22.9,36.9,38.4,64.8,38.4c4.2,0,8.2-0.4,12.2-1.1c31-5.2,55.4-29.6,60.6-60.6C295.3,233.4,295.7,229.4,295.7,225.2z
			 M221.9,283.5c-32.1,0-58.3-26.1-58.3-58.3c0-3.2,0.3-6.3,0.8-9.4c0.9-5.3,2.5-10.4,4.7-15.2c2.2-4.8,5-9.2,8.4-13.1
			c3.8-4.5,8.3-8.4,13.3-11.5c9-5.7,19.6-9,31.1-9c32.1,0,58.3,26.1,58.3,58.3c0,3.1-0.3,6.1-0.8,9c-3.9,24.9-23.6,44.6-48.5,48.5
			C227.9,283.2,224.9,283.5,221.9,283.5z"/>
		<path class="st0" d="M225.1,209.9c-3.5,0-6.5,0.5-9,1.4c-1.5,0.6-3.5,1.7-6.1,3.4l3.1-18.9h35.4v-14.4h-47.6l-3,24l-2.8,22.1
			l-0.2,1.7l15.3,0.7c1.4-2.6,3.4-4.4,6-5.3c1.5-0.5,3.3-0.8,5.4-0.8c4.4,0,7.6,1.5,9.7,4.6c2.1,3,3.1,6.8,3.1,11.2
			c0,4.5-1.1,8.2-3.3,11.2c-2.2,3-5.4,4.4-9.6,4.4c-3.7,0-6.4-1-8.3-3c-1.9-2-3.2-4.9-3.9-8.6h-17c0.6,8.1,3.5,14.4,8.8,18.8
			c5.3,4.4,12.1,6.6,20.3,6.6c10.2,0,17.9-3.1,23-9.4c5.1-6.3,7.7-13.4,7.7-21.4c0-9.2-2.7-16.2-8-21
			C238.4,212.4,232.2,209.9,225.1,209.9z"/>
	</g>
</g>
</svg>
